<?xml version="1.0" standalone="no"?>
<!DOCTYPE svg PUBLIC "-//W3C//DTD SVG 20010904//EN"
 "http://www.w3.org/TR/2001/REC-SVG-20010904/DTD/svg10.dtd">
<svg version="1.0" xmlns="http://www.w3.org/2000/svg"
 width="2000.000000pt" height="1050.000000pt" viewBox="0 0 2000.000000 1050.000000"
 preserveAspectRatio="xMidYMid meet">

<g transform="translate(0.000000,1050.000000) scale(0.100000,-0.100000)"
fill="#000000" stroke="none">
<path d="M9830 8757 c-3 -2 -48 -7 -100 -11 -354 -25 -743 -137 -1099 -318
-326 -166 -547 -324 -778 -559 -593 -602 -849 -1444 -687 -2259 133 -670 601
-1333 1210 -1715 108 -68 330 -182 450 -231 157 -64 419 -143 559 -168 198
-37 251 -43 454 -57 393 -26 824 39 1208 182 132 49 434 196 563 275 498 303
891 761 1093 1274 244 620 241 1264 -8 1865 -39 94 -146 303 -185 360 -15 22
-48 72 -74 110 -119 183 -234 317 -406 478 -201 188 -381 313 -635 442 -320
163 -619 254 -1015 310 -104 15 -539 32 -550 22z m505 -272 c22 -3 87 -13 145
-21 509 -75 1071 -366 1471 -764 317 -315 475 -599 594 -1070 42 -167 59 -317
59 -540 1 -374 -54 -622 -205 -939 -130 -271 -280 -481 -504 -707 -242 -243
-481 -413 -730 -518 -217 -91 -463 -160 -715 -201 -257 -41 -641 -42 -905 -1
-166 26 -225 40 -360 82 -443 141 -856 397 -1176 729 -181 189 -280 325 -370
510 -165 342 -242 675 -243 1055 -1 351 54 617 186 902 207 449 526 817 953
1101 130 87 239 141 410 205 184 69 420 132 585 156 39 6 187 24 240 30 52 5
519 -2 565 -9z"/>
<path d="M9862 6963 c-7 -2 -26 -25 -43 -49 -19 -28 -38 -44 -50 -44 -11 0
-57 13 -102 29 -70 24 -240 61 -284 61 -9 0 -13 -18 -13 -64 l0 -63 43 -7 c82
-13 137 -37 190 -86 77 -71 160 -217 203 -362 22 -73 81 -101 124 -58 19 19
20 33 20 318 0 277 -1 300 -18 315 -18 17 -45 20 -70 10z"/>
<path d="M9135 6945 c-143 -39 -310 -160 -397 -288 -126 -185 -186 -451 -160
-703 16 -151 36 -223 95 -344 44 -90 63 -117 137 -191 54 -55 110 -100 153
-124 76 -42 202 -85 247 -85 l30 0 0 70 c0 67 -1 70 -29 84 -16 9 -34 29 -40
47 -8 22 -11 228 -11 668 0 713 -3 681 73 730 36 24 37 25 37 88 l0 63 -42 -1
c-24 0 -65 -7 -93 -14z"/>
<path d="M10661 6949 c-293 -57 -465 -262 -464 -554 0 -115 23 -198 77 -280
78 -118 176 -188 401 -290 83 -37 173 -80 202 -96 180 -102 175 -291 -10 -361
l-62 -24 -3 -67 -3 -67 38 0 c49 0 185 33 247 60 170 73 292 224 332 411 56
260 -73 490 -349 623 -61 30 -164 79 -227 108 -174 82 -221 132 -221 234 0 73
26 114 96 150 l55 29 0 68 0 67 -32 -1 c-18 -1 -53 -5 -77 -10z"/>
<path d="M10870 6888 c0 -51 3 -68 14 -68 30 0 154 -72 193 -112 59 -60 110
-150 138 -242 13 -43 32 -84 42 -92 27 -21 61 -17 88 11 l25 24 0 240 c0 249
-5 285 -42 296 -28 10 -54 -3 -83 -40 -14 -19 -34 -35 -45 -35 -10 0 -58 15
-107 34 -49 19 -119 39 -156 44 l-67 9 0 -69z"/>
<path d="M9343 6085 c-29 -12 -33 -18 -33 -54 0 -34 4 -43 28 -55 15 -7 42
-17 60 -21 58 -12 64 -43 60 -301 -3 -206 -5 -225 -24 -251 -11 -15 -34 -35
-52 -43 -31 -15 -32 -17 -32 -82 l0 -68 35 0 c55 0 183 29 255 57 72 29 170
86 243 141 l47 36 0 239 0 239 40 39 c54 53 55 100 3 128 -34 18 -588 15 -630
-4z"/>
<path d="M10227 5848 c-9 -7 -21 -26 -27 -41 -13 -35 -13 -466 0 -522 17 -73
59 -84 119 -30 46 42 70 44 154 10 77 -32 165 -55 206 -55 l31 0 0 68 0 68
-57 18 c-48 15 -71 32 -134 95 -84 84 -133 164 -175 286 -15 44 -34 88 -42 98
-18 20 -51 22 -75 5z"/>
<path d="M6320 2876 c-79 -17 -145 -53 -196 -108 -73 -78 -89 -124 -89 -253 0
-100 2 -115 27 -161 29 -55 114 -138 169 -166 19 -9 91 -44 160 -77 144 -68
174 -97 174 -166 0 -56 -28 -94 -86 -118 -48 -20 -49 -22 -49 -64 0 -49 1 -49
82 -32 134 29 243 111 294 222 26 55 29 73 29 157 0 112 -19 161 -94 242 -38
41 -75 64 -221 136 -140 70 -179 94 -197 121 -43 65 -23 140 48 176 25 14 29
21 29 60 0 50 2 49 -80 31z"/>
<path d="M8405 2876 c-176 -43 -318 -201 -360 -401 -8 -38 -15 -115 -15 -170
0 -323 149 -525 428 -580 l32 -7 0 46 c0 32 -4 46 -13 46 -8 0 -24 12 -38 26
l-24 26 -3 423 c-3 462 -1 482 52 507 22 9 26 18 26 55 0 49 -2 49 -85 29z"/>
<path d="M8560 2848 c0 -37 4 -45 30 -60 17 -9 35 -29 40 -44 7 -18 10 -178 8
-455 l-3 -427 -24 -26 c-14 -14 -30 -26 -38 -26 -9 0 -13 -14 -13 -45 l0 -45
43 6 c198 31 352 183 403 400 24 105 15 325 -18 419 -66 189 -203 310 -385
340 l-43 7 0 -44z"/>
<path d="M12600 2876 c-79 -17 -145 -53 -196 -108 -73 -78 -89 -124 -89 -253
0 -100 2 -115 27 -161 29 -55 114 -138 169 -166 19 -9 91 -44 160 -77 144 -68
174 -97 174 -166 0 -56 -28 -94 -86 -118 -48 -20 -49 -22 -49 -64 0 -49 1 -49
82 -32 134 29 243 111 294 222 26 55 29 73 29 157 0 112 -19 161 -94 242 -38
41 -75 64 -221 136 -140 70 -179 94 -197 121 -43 65 -23 140 48 176 25 14 29
21 29 60 0 50 2 49 -80 31z"/>
<path d="M13564 2866 c-72 -27 -149 -80 -200 -139 -47 -55 -99 -165 -119 -251
-21 -90 -21 -271 0 -361 21 -92 79 -198 142 -261 57 -58 172 -120 241 -130
l42 -7 0 46 c0 36 -4 49 -20 57 -37 20 -41 73 -38 503 3 381 4 414 21 439 11
15 27 30 38 33 15 5 19 16 19 51 0 43 -1 44 -32 43 -18 0 -61 -10 -94 -23z"/>
<path d="M13760 2848 l0 -43 51 -12 c29 -7 67 -25 86 -39 46 -35 106 -131 139
-222 21 -57 32 -74 51 -78 49 -13 53 2 53 215 0 203 -3 221 -41 221 -10 0 -29
-14 -43 -32 -25 -32 -25 -32 -68 -20 -92 27 -145 41 -185 47 l-43 7 0 -44z"/>
<path d="M15631 2874 c-153 -41 -243 -139 -271 -294 -22 -120 12 -232 96 -316
45 -45 84 -68 217 -133 191 -92 217 -115 217 -193 0 -42 -4 -54 -29 -77 -16
-15 -45 -32 -63 -37 -31 -9 -33 -13 -36 -57 -3 -46 -3 -47 26 -47 17 0 61 9
98 21 180 55 284 188 284 364 0 111 -27 174 -109 255 -57 57 -82 73 -186 119
-66 29 -141 67 -168 85 -98 65 -102 168 -7 216 38 19 40 23 40 65 0 43 -1 45
-27 44 -16 0 -52 -7 -82 -15z"/>
<path d="M15805 2882 c-3 -3 -5 -22 -5 -43 0 -36 3 -39 48 -59 88 -39 155
-123 187 -232 13 -46 21 -59 41 -64 51 -13 55 3 52 199 -3 162 -5 181 -21 191
-16 9 -23 6 -46 -21 -15 -18 -33 -33 -39 -33 -6 0 -37 12 -69 26 -60 26 -138
45 -148 36z"/>
<path d="M6480 2840 c0 -36 3 -40 43 -58 24 -11 60 -34 80 -51 37 -33 107
-158 107 -192 0 -20 33 -59 49 -59 5 0 17 7 25 16 13 13 16 45 16 189 0 165
-1 175 -20 185 -17 9 -25 6 -49 -21 -33 -36 -41 -36 -136 5 -33 14 -72 26 -87
26 -26 0 -28 -3 -28 -40z"/>
<path d="M12760 2840 c0 -36 3 -40 43 -58 24 -11 60 -34 80 -51 37 -33 107
-158 107 -192 0 -20 33 -59 49 -59 5 0 17 7 25 16 13 13 16 45 16 189 0 165
-1 175 -20 185 -17 9 -25 6 -49 -21 -33 -36 -41 -36 -136 5 -33 14 -72 26 -87
26 -26 0 -28 -3 -28 -40z"/>
<path d="M1630 2685 c0 -176 1 -185 21 -195 34 -19 65 10 74 67 11 75 44 151
81 187 29 28 34 40 34 80 l0 46 -105 0 -105 0 0 -185z"/>
<path d="M1910 2368 c0 -277 -4 -508 -8 -515 -4 -7 -25 -18 -47 -25 -32 -11
-40 -18 -40 -38 0 -45 29 -50 275 -49 124 1 236 4 250 8 19 5 25 13 25 36 0
25 -6 32 -31 40 -68 22 -64 -15 -64 541 l0 504 -180 0 -180 0 0 -502z"/>
<path d="M2350 2821 c0 -41 5 -53 35 -85 34 -37 75 -140 75 -192 0 -24 31 -64
50 -64 6 0 19 9 30 20 18 18 20 33 20 195 l0 175 -105 0 -105 0 0 -49z"/>
<path d="M2680 2852 c-29 -24 -20 -57 20 -71 18 -6 34 -21 40 -36 13 -34 13
-845 1 -878 -5 -13 -26 -34 -45 -45 -37 -22 -43 -36 -26 -62 13 -21 471 -27
510 -7 39 20 32 49 -19 73 -25 12 -48 30 -52 40 -4 11 -8 241 -8 512 l-1 492
-199 0 c-177 0 -201 -2 -221 -18z"/>
<path d="M3180 2828 c0 -39 3 -45 34 -62 18 -10 39 -29 45 -42 7 -15 11 -88
11 -183 0 -143 -2 -161 -20 -184 -11 -13 -31 -28 -45 -31 -21 -5 -25 -12 -25
-46 0 -33 4 -42 24 -50 13 -4 33 -21 45 -36 19 -24 21 -39 21 -153 0 -140 10
-190 47 -239 39 -52 96 -75 183 -75 41 0 88 6 104 12 77 31 157 132 136 171
-15 27 -37 31 -63 9 -50 -39 -55 -30 -59 104 -3 118 -4 125 -32 161 -32 42
-107 82 -173 92 -24 3 -43 9 -43 13 0 3 29 16 64 29 126 45 189 133 189 265 0
55 -5 78 -29 124 -52 100 -144 145 -321 158 l-93 7 0 -44z"/>
<path d="M4172 2829 c-9 -37 -2 -77 64 -366 41 -179 74 -329 74 -334 0 -5 -40
-9 -90 -9 l-89 0 -10 -37 c-18 -65 -22 -63 102 -63 l114 0 15 -70 c19 -85 15
-106 -23 -126 -38 -19 -40 -60 -3 -74 33 -13 435 -13 468 0 37 14 35 54 -3 69
-15 7 -33 23 -39 36 -9 20 -242 992 -242 1009 0 3 -74 6 -164 6 l-164 0 -10
-41z"/>
<path d="M4932 2863 c-25 -5 -45 -35 -36 -56 3 -8 23 -21 44 -30 46 -18 19 24
360 -564 l273 -473 108 0 109 0 0 183 -1 182 -218 380 -219 380 -198 1 c-110
1 -209 -1 -222 -3z"/>
<path d="M5613 2860 c-39 -16 -29 -51 25 -90 63 -47 71 -75 71 -247 l1 -142
38 -63 37 -63 5 215 c6 244 10 258 82 307 49 33 55 61 18 80 -29 15 -242 17
-277 3z"/>
<path d="M7000 2852 c-29 -24 -20 -57 20 -71 18 -6 34 -21 40 -36 13 -34 13
-845 1 -878 -5 -13 -26 -34 -45 -45 -37 -22 -43 -36 -26 -62 13 -21 471 -27
510 -7 39 20 32 49 -19 73 -25 12 -48 30 -52 40 -4 11 -8 241 -8 512 l-1 492
-199 0 c-177 0 -201 -2 -221 -18z"/>
<path d="M7500 2825 c0 -32 4 -45 14 -45 8 0 28 -12 45 -26 l31 -26 0 -200 c0
-132 -4 -207 -12 -221 -15 -28 -38 -46 -60 -47 -15 0 -18 -9 -18 -45 0 -29 4
-45 13 -45 70 1 201 25 249 47 73 33 140 104 164 176 29 82 25 207 -8 277 -59
124 -155 180 -340 195 l-78 6 0 -46z"/>
<path d="M9150 2852 c-29 -24 -20 -57 20 -71 18 -6 34 -21 40 -36 13 -34 13
-845 1 -878 -5 -13 -26 -34 -45 -45 -37 -22 -43 -36 -26 -62 13 -21 471 -27
510 -7 39 20 32 49 -19 73 -25 12 -48 30 -52 40 -4 11 -8 241 -8 512 l-1 492
-199 0 c-177 0 -201 -2 -221 -18z"/>
<path d="M9650 2828 c0 -39 3 -45 34 -62 18 -10 39 -29 45 -42 7 -15 11 -88
11 -183 0 -143 -2 -161 -20 -184 -11 -13 -31 -28 -45 -31 -21 -5 -25 -12 -25
-46 0 -33 4 -42 24 -50 13 -4 33 -21 45 -36 19 -24 21 -39 21 -153 0 -140 10
-190 47 -239 39 -52 96 -75 183 -75 41 0 88 6 104 12 77 31 157 132 136 171
-15 27 -37 31 -63 9 -50 -39 -55 -30 -59 104 -3 118 -4 125 -32 161 -32 42
-107 82 -173 92 -24 3 -43 9 -43 13 0 3 29 16 64 29 126 45 189 133 189 265 0
55 -5 78 -29 124 -52 100 -144 145 -321 158 l-93 7 0 -44z"/>
<path d="M10290 2685 c0 -176 1 -185 21 -195 34 -19 65 10 74 67 11 75 44 151
81 187 29 28 34 40 34 80 l0 46 -105 0 -105 0 0 -185z"/>
<path d="M10570 2368 c0 -277 -4 -508 -8 -515 -4 -7 -25 -18 -47 -25 -32 -11
-40 -18 -40 -38 0 -45 29 -50 275 -49 124 1 236 4 250 8 19 5 25 13 25 36 0
25 -6 32 -31 40 -68 22 -64 -15 -64 541 l0 504 -180 0 -180 0 0 -502z"/>
<path d="M11010 2821 c0 -41 5 -53 35 -85 34 -37 75 -140 75 -192 0 -24 31
-64 50 -64 6 0 19 9 30 20 18 18 20 33 20 195 l0 175 -105 0 -105 0 0 -49z"/>
<path d="M11340 2852 c-29 -24 -20 -57 20 -71 18 -6 34 -21 40 -36 13 -34 13
-845 1 -878 -5 -13 -26 -34 -45 -45 -37 -22 -43 -36 -26 -62 8 -12 46 -16 220
-18 l210 -3 0 565 0 566 -199 0 c-177 0 -201 -2 -221 -18z"/>
<path d="M11850 2820 c0 -45 2 -50 23 -50 38 0 121 -45 155 -84 18 -21 44 -62
57 -92 26 -58 46 -74 70 -54 12 10 15 43 15 171 l0 159 -160 0 -160 0 0 -50z"/>
<path d="M14630 2829 c-10 -36 -4 -72 59 -349 39 -170 73 -320 77 -334 l6 -26
-94 0 -94 0 -10 -50 -11 -50 113 0 c62 0 115 -4 118 -9 3 -5 11 -41 18 -81
l12 -72 -32 -26 c-36 -31 -42 -66 -13 -82 26 -14 456 -14 482 0 30 17 24 57
-11 75 -17 9 -35 26 -39 38 -5 12 -59 236 -120 497 -62 261 -114 483 -117 493
-5 15 -22 17 -169 17 l-164 0 -11 -41z"/>
<path d="M16630 2829 c-10 -36 -4 -72 59 -349 39 -170 73 -320 77 -334 l6 -26
-94 0 -94 0 -10 -50 -11 -50 113 0 c62 0 115 -4 118 -9 3 -5 11 -41 18 -81
l12 -72 -32 -26 c-36 -31 -42 -66 -13 -82 26 -14 456 -14 482 0 30 17 24 57
-11 75 -17 9 -35 26 -39 38 -5 12 -59 236 -120 497 -62 261 -114 483 -117 493
-5 15 -22 17 -169 17 l-164 0 -11 -41z"/>
<path d="M17376 2851 c-26 -29 -16 -53 33 -77 43 -20 51 -32 336 -525 l292
-504 111 -3 112 -3 0 184 0 185 -217 381 -218 381 -216 0 c-201 0 -217 -1
-233 -19z"/>
<path d="M18073 2863 c-7 -2 -13 -18 -13 -34 0 -23 9 -34 41 -56 65 -43 73
-66 77 -243 l4 -155 36 -63 37 -64 5 214 c6 243 8 253 83 308 49 37 57 58 31
84 -13 13 -40 16 -152 15 -75 0 -143 -3 -149 -6z"/>
<path d="M14577 2630 c-3 -8 -47 -166 -98 -350 -50 -184 -101 -353 -113 -374
-12 -24 -39 -50 -65 -65 -62 -36 -72 -57 -42 -82 20 -17 39 -19 155 -19 140 0
156 5 156 47 0 16 -11 28 -40 43 -41 21 -60 45 -60 79 0 11 34 144 76 295 l76
276 -20 82 c-10 46 -22 76 -25 68z"/>
<path d="M16577 2630 c-3 -8 -47 -166 -98 -350 -50 -184 -101 -353 -113 -374
-12 -24 -39 -50 -65 -65 -62 -36 -72 -57 -42 -82 20 -17 39 -19 155 -19 140 0
156 5 156 47 0 16 -11 28 -40 43 -41 21 -60 45 -60 79 0 11 34 144 76 295 l76
276 -20 82 c-10 46 -22 76 -25 68z"/>
<path d="M4117 2620 c-4 -8 -49 -170 -100 -359 -54 -196 -103 -354 -114 -370
-11 -14 -35 -36 -54 -48 -67 -44 -71 -47 -63 -66 4 -10 18 -23 31 -28 32 -12
235 -12 267 1 34 13 34 45 -1 67 -56 34 -73 56 -73 90 0 18 34 154 75 303 l75
270 -19 77 c-10 43 -21 71 -24 63z"/>
<path d="M5010 2247 c0 -299 -1 -320 -20 -357 -12 -23 -38 -51 -61 -66 -45
-28 -48 -51 -9 -71 30 -15 236 -18 274 -3 40 15 33 44 -19 80 -78 54 -79 60
-85 355 l-5 260 -37 60 -38 60 0 -318z"/>
<path d="M17480 2258 c0 -178 -4 -318 -10 -340 -7 -25 -27 -51 -60 -79 -56
-47 -63 -75 -24 -89 34 -13 260 -13 285 0 29 16 24 57 -8 74 -16 8 -41 28 -58
46 l-30 31 -5 267 -5 267 -39 63 c-21 34 -40 62 -42 62 -2 0 -4 -136 -4 -302z"/>
<path d="M11973 2532 c-6 -4 -21 -33 -33 -65 -17 -44 -32 -65 -61 -85 -35 -25
-38 -31 -39 -74 0 -34 4 -48 14 -48 28 0 65 -42 86 -98 27 -73 45 -86 74 -56
13 13 16 46 16 209 0 163 -3 196 -16 209 -17 18 -24 19 -41 8z"/>
<path d="M13730 2292 c-32 -26 -19 -57 28 -73 20 -6 40 -17 44 -23 4 -6 8 -84
8 -174 0 -160 0 -163 -25 -187 -13 -14 -29 -25 -35 -25 -5 0 -10 -20 -10 -45
0 -42 2 -45 28 -45 87 1 248 64 323 128 l39 34 0 157 c0 155 0 158 25 181 30
28 32 65 6 80 -12 6 -99 10 -214 10 -173 0 -197 -2 -217 -18z"/>
<path d="M6048 2139 c-16 -9 -18 -30 -18 -199 0 -183 1 -190 21 -201 18 -9 27
-7 50 10 35 26 64 26 126 2 26 -10 67 -22 91 -26 l42 -7 0 45 c0 44 -2 46 -37
58 -46 15 -133 100 -163 159 -12 24 -31 69 -41 99 -24 68 -38 80 -71 60z"/>
<path d="M12328 2139 c-16 -9 -18 -30 -18 -199 0 -183 1 -190 21 -201 18 -9
27 -7 50 10 35 26 64 26 126 2 26 -10 67 -22 91 -26 l42 -7 0 45 c0 44 -2 46
-37 58 -46 15 -133 100 -163 159 -12 24 -31 69 -41 99 -24 68 -38 80 -71 60z"/>
<path d="M15366 2128 c-13 -18 -16 -54 -16 -188 0 -134 3 -170 16 -188 19 -27
34 -28 67 -2 33 26 49 25 135 -5 39 -14 83 -25 97 -25 23 0 25 4 25 44 0 43
-1 44 -54 70 -32 16 -69 45 -91 71 -38 47 -95 150 -95 173 0 7 -7 26 -15 42
-19 36 -48 39 -69 8z"/>
<path d="M12110 2058 c-11 -18 -20 -38 -20 -44 0 -24 -65 -106 -105 -134 -24
-16 -64 -35 -89 -42 -46 -12 -46 -13 -46 -55 l0 -43 165 0 165 0 0 163 c0 164
-5 187 -37 187 -7 0 -22 -15 -33 -32z"/>
</g>
</svg>
